<svg width="25" height="18" viewBox="0 0 25 18" fill="none" xmlns="http://www.w3.org/2000/svg">
<path opacity="0.5" d="M10 7.49968H6.37625L6.3775 7.48843C6.54072 6.68922 6.86016 5.93011 7.3175 5.25468C7.99807 4.25195 8.95268 3.46613 10.0675 2.99093C10.445 2.83093 10.8387 2.70843 11.24 2.62718C12.0724 2.45842 12.9301 2.45842 13.7625 2.62718C14.9587 2.87229 16.0564 3.46394 16.9187 4.32843L18.6888 2.56343C17.891 1.76548 16.9472 1.12848 15.9087 0.687177C15.3791 0.462964 14.8285 0.292119 14.265 0.177177C13.1023 -0.0590591 11.904 -0.0590591 10.7413 0.177177C10.1773 0.292595 9.62626 0.463856 9.09625 0.688427C7.53441 1.35106 6.19741 2.45104 5.24625 3.85593C4.60611 4.80324 4.15845 5.86717 3.92875 6.98718C3.89375 7.15593 3.875 7.32843 3.85 7.49968H0L5 12.4997L10 7.49968ZM15 9.99968H18.6237L18.6225 10.0097C18.2959 11.6119 17.3515 13.021 15.9938 13.9322C15.3185 14.3899 14.5593 14.7094 13.76 14.8722C12.9281 15.0409 12.0707 15.0409 11.2387 14.8722C10.4395 14.709 9.68044 14.3895 9.005 13.9322C8.67328 13.7078 8.36356 13.4525 8.08 13.1697L6.3125 14.9372C7.11063 15.7349 8.05491 16.3715 9.09375 16.8122C9.62375 17.0372 10.1775 17.2084 10.7375 17.3222C11.8998 17.5586 13.0977 17.5586 14.26 17.3222C16.5007 16.8571 18.4716 15.5364 19.7537 13.6409C20.3933 12.6943 20.8405 11.6313 21.07 10.5122C21.1038 10.3434 21.1238 10.1709 21.1488 9.99968H25L20 4.99968L15 9.99968Z" fill="white"/>
</svg>
