<svg width="32" height="32" viewBox="0 0 32 32" fill="none" xmlns="http://www.w3.org/2000/svg">
<g opacity="0.8">
<path d="M12.5303 8.46967C12.2374 8.17678 11.7626 8.17678 11.4697 8.46967L6.6967 13.2426C6.40381 13.5355 6.40381 14.0104 6.6967 14.3033C6.98959 14.5962 7.46447 14.5962 7.75736 14.3033L12 10.0607L16.2426 14.3033C16.5355 14.5962 17.0104 14.5962 17.3033 14.3033C17.5962 14.0104 17.5962 13.5355 17.3033 13.2426L12.5303 8.46967ZM12.75 23V9H11.25V23H12.75Z" fill="white"/>
<path d="M20.4697 23.5303C20.7626 23.8232 21.2374 23.8232 21.5303 23.5303L26.3033 18.7574C26.5962 18.4645 26.5962 17.9896 26.3033 17.6967C26.0104 17.4038 25.5355 17.4038 25.2426 17.6967L21 21.9393L16.7574 17.6967C16.4645 17.4038 15.9896 17.4038 15.6967 17.6967C15.4038 17.9896 15.4038 18.4645 15.6967 18.7574L20.4697 23.5303ZM20.25 9L20.25 23L21.75 23L21.75 9L20.25 9Z" fill="white"/>
<circle cx="16" cy="16" r="15.5" stroke="#B8BEC4"/>
</g>
</svg>
